<svg width="40" height="40" viewBox="0 0 40 40" fill="none" xmlns="http://www.w3.org/2000/svg">
<path fill-rule="evenodd" clip-rule="evenodd" d="M38 18H36.1713L39.9833 34.5167C40.0291 34.7147 39.982 34.9228 39.8554 35.0818C39.7288 35.2409 39.5366 35.3335 39.3333 35.3333H38.6667C38.6667 37.9107 36.5773 40 34 40C31.4227 40 29.3333 37.9107 29.3333 35.3333H17.3333C17.3333 37.9107 15.244 40 12.6667 40C10.0893 40 8 37.9107 8 35.3333H0.666667C0.298477 35.3333 0 35.0349 0 34.6667V32C0 31.6318 0.298477 31.3333 0.666667 31.3333H4V30H2C1.63181 30 1.33333 29.7015 1.33333 29.3333V26.6667C1.33333 26.2985 1.63181 26 2 26H4.05333C4.38444 23.706 6.34895 22.0027 8.66667 22H10.6667V15.3333H9.33333V17.3333C9.33333 18.4379 8.4379 19.3333 7.33333 19.3333H0.666667C0.397069 19.3333 0.154044 19.1708 0.0508813 18.9218C-0.0522813 18.6727 0.00472805 18.386 0.195333 18.1953L1.724 16.6667L0.195333 15.138C0.00472805 14.9473 -0.0522813 14.6606 0.0508813 14.4116C0.154044 14.1625 0.397069 14.0001 0.666667 14H5.33333V12C5.33333 10.8954 6.22876 10 7.33333 10H10.6667V2.66667C10.6667 1.19391 11.8606 0 13.3333 0H16C17.4728 0 18.6667 1.19391 18.6667 2.66667V13.4793L20.7487 14H26C26.3682 14 26.6667 14.2985 26.6667 14.6667V15.9872C26.6735 14.8885 27.5663 14 28.6666 14C29.7712 14 30.6666 14.8954 30.6666 16C30.6666 17.1046 29.7712 18 28.6666 18C27.5663 18 26.6735 17.1115 26.6667 16.0128V17.3333C26.6667 17.7015 26.3682 18 26 18H20.6667C20.6121 18 20.5576 17.9933 20.5047 17.98L18.6667 17.5207V19.3333H26C26.3682 19.3333 26.6667 19.6318 26.6667 20V27.3333C27.7712 27.3333 28.6667 28.2288 28.6667 29.3333V30H30.6667V12.1573L29.588 10H26C25.6318 10 25.3333 9.70152 25.3333 9.33333V6.66667C25.3333 6.29848 25.6318 6 26 6H30C30.3682 6 30.6667 6.29848 30.6667 6.66667V9.176L31.7453 11.3333H38C38.3682 11.3333 38.6667 11.6318 38.6667 12V17.3333C38.6667 17.7015 38.3682 18 38 18ZM26.6667 8.66667H29.3333V7.33333H26.6667V8.66667ZM4 32.6667V34H1.33333V32.6667H4ZM2.66667 28.6667H4V27.3333H2.66667V28.6667ZM36 12.6667H37.3333V16.6667H36V12.6667ZM34.6667 12.6667H32V16.6667H34.6667V12.6667ZM26.6667 28.6667C27.0349 28.6667 27.3333 28.9651 27.3333 29.3333V30H24V28.6667H26.6667ZM20.6667 15.3333C20.6121 15.3333 20.5576 15.3266 20.5047 15.3133L16 14.1873V15.4793L20.7487 16.6667H25.3333V15.3333H20.6667ZM12 2.66667C12 1.93029 12.597 1.33333 13.3333 1.33333H16C16.7364 1.33333 17.3333 1.93029 17.3333 2.66667V3.33333H14.6667C14.2985 3.33333 14 3.63181 14 4V5.33333H12V2.66667ZM14.6667 6.66667H12V7.77067L17.3333 6.17067V4.66667H15.3333V6C15.3333 6.36819 15.0349 6.66667 14.6667 6.66667ZM17.3333 7.56267V10.6667H12V9.16267L17.3333 7.56267ZM17.3333 13.146V12H12V19.3333H17.3333V17.1873L15.1713 16.6467C14.8747 16.5724 14.6667 16.3058 14.6667 16V13.3333C14.6667 13.128 14.7613 12.9341 14.9232 12.8078C15.0851 12.6814 15.2961 12.6368 15.4953 12.6867L17.3333 13.146ZM25.3333 20.6667V27.3333H24V22.6667C24 22.2985 23.7015 22 23.3333 22H12V20.6667H25.3333ZM7.33333 18C7.70152 18 8 17.7015 8 17.3333V15.3333H2.276L3.138 16.1953C3.39825 16.4557 3.39825 16.8777 3.138 17.138L2.276 18H7.33333ZM6.66667 14V12C6.66667 11.6318 6.96514 11.3333 7.33333 11.3333H10.6667V14H6.66667ZM9.33333 35.3333C9.33554 37.1734 10.8266 38.6645 12.6667 38.6667C14.5067 38.6645 15.9978 37.1734 16 35.3333H14.6667C14.6667 36.4379 13.7712 37.3333 12.6667 37.3333C11.5621 37.3333 10.6667 36.4379 10.6667 35.3333H9.33333ZM13.3333 35.3333C13.3333 35.7015 13.0349 36 12.6667 36C12.2985 36 12 35.7015 12 35.3333H13.3333ZM8 34H17.3333V27.3333C17.3333 26.9651 17.0349 26.6667 16.6667 26.6667H8.66667C8.29848 26.6667 8 26.9651 8 27.3333V34ZM20 34H18.6667V27.3333C18.6667 26.2288 17.7712 25.3333 16.6667 25.3333H8.66667C7.5621 25.3333 6.66667 26.2288 6.66667 27.3333V34H5.33333V26.6667C5.33554 24.8266 6.82663 23.3355 8.66667 23.3333H16.6667C18.5067 23.3355 19.9978 24.8266 20 26.6667V34ZM22.6667 23.3333H19.9267C20.8262 24.2091 21.3335 25.4113 21.3333 26.6667V30H22.6667V23.3333ZM30.6667 35.3333C30.6689 37.1734 32.16 38.6645 34 38.6667C35.84 38.6645 37.3311 37.1734 37.3333 35.3333H36C36 36.4379 35.1046 37.3333 34 37.3333C32.8954 37.3333 32 36.4379 32 35.3333H30.6667ZM34.6667 35.3333C34.6667 35.7015 34.3682 36 34 36C33.6318 36 33.3333 35.7015 33.3333 35.3333H34.6667ZM32 29.3333V34H38.492L34.8 18H32V28H33.3333V29.3333H32ZM30.6667 34H21.3333V31.3333H30.6667V34ZM10.6667 28H9.33333V29.3333H10.6667V28ZM36 28H34.6667V29.3333H36V28ZM12 28H13.3333V29.3333H12V28ZM16 28H14.6667V29.3333H16V28ZM28.6666 15.3333C29.0348 15.3333 29.3333 15.6318 29.3333 16C29.3333 16.3682 29.0348 16.6667 28.6666 16.6667C28.2984 16.6667 28 16.3682 28 16C28 15.6318 28.2984 15.3333 28.6666 15.3333ZM0 4.66675H8.66667V6.00008H0V4.66675ZM9.33337 7.33325H1.33337V8.66658H9.33337V7.33325Z" fill="#495567"/>
</svg>
